bicep_curl
version=1
nRows=13
nColumns=17
inDegrees=yes

# SIMM Motion File Header:
name bicep_curl
datacolumns 17
datarows 13
otherdata 1
range 0.15136955 0.16086129
endheader
time	/jointset/r_shoulder/r_shoulder_elev/value	/jointset/r_shoulder/r_shoulder_elev/speed	/jointset/r_elbow/r_elbow_flex/value	/jointset/r_elbow/r_elbow_flex/speed	/forceset/TRIlong/activation	/forceset/TRIlong/fiber_length	/forceset/TRIlat/activation	/forceset/TRIlat/fiber_length	/forceset/TRImed/activation	/forceset/TRImed/fiber_length	/forceset/BIClong/activation	/forceset/BIClong/fiber_length	/forceset/BICshort/activation	/forceset/BICshort/fiber_length	/forceset/BRA/activation	/forceset/BRA/fiber_length
0.15136955	-0.0739838904055252	-0.785512020477473	39.3575086545799	259.213658415035	0.0208396276483974	0.151809128058869	0.0318156963090193	0.0857202847753492	0.0341598028014811	0.0807184918092785	0.348342602143905	0.133773705155424	0.111331215093816	0.133685788659538	0.0446083613291806	0.0841507578658747
0.15222397	-0.0746459122955165	-0.764386037088679	39.5789537198755	259.132700361536	0.0208301558907212	0.151895955769101	0.0321891147888179	0.0858031032574543	0.0344619791347151	0.0808027388774499	0.351520720279229	0.133646046765372	0.111925803799331	0.133567419904406	0.0443363317993065	0.0841031872086637
0.15390801	-0.0758988783101582	-0.724510163490047	40.0152112294622	258.979361494101	0.0208117894707404	0.152066954951103	0.0327739740381054	0.0859684402610509	0.0349360302715233	0.0809702301445732	0.357027091221615	0.133392374521439	0.112895146796757	0.133332121527083	0.0438102659874889	0.0840095788796992
0.15521992	-0.0768321406567501	-0.70034231739183	40.3548998651334	258.882484106717	0.0207977691637267	0.152199544452242	0.0331198440364507	0.086098652151891	0.0352168903757328	0.08110151279393	0.360712330726351	0.133193556497179	0.11349715100523	0.133147438377382	0.0434095408510136	0.0839367805650589
0.15653184	-0.0777404169850085	-0.685613548140661	40.6944867600861	258.815092966553	0.0207839917421925	0.152332716811509	0.0333920400813825	0.0862299047155611	0.0354382672045314	0.0812336219486802	0.363945100962297	0.132994195185696	0.113991542421517	0.132961832575503	0.0430165809594928	0.0838640778768499
0.15784376	-0.0786359589023839	-0.682321648587512	41.0340058517403	258.783750584908	0.0207704502538726	0.152464487263152	0.0336063398625422	0.0863618155102637	0.035612810100412	0.0813659334287471	0.366784325729764	0.132794579101844	0.114397712088449	0.13277550877367	0.042631228474313	0.0837914639920266
0.15899251	-0.0794229387318571	-0.689127275696211	41.3312809606366	258.785570733979	0.0207587868322637	0.152581053487789	0.0337562407768555	0.0864777695763752	0.0357350601727639	0.0814822365901554	0.368987237115044	0.132619748455703	0.114693485590697	0.132611834317303	0.0422999262906068	0.0837279403951586
0.16	-0.0801233830727782	-0.702836912542817	41.5920170295774	258.810921602779	0.0207487067163841	0.152682189569445	0.03386424669009	0.0865797175731981	0.0358232426021099	0.081584288996637	0.370726218318252	0.132466448993574	0.114914254784486	0.132467913828651	0.0420139715530151	0.0836722732290252
0.16000683	-0.0801277913158682	-0.702882384694264	41.5937841514602	258.811002779261	0.020748642103127	0.152682878931118	0.0338649167553186	0.0865804117330788	0.0358237846724333	0.0815849824250352	0.370737427450736	0.132465410927617	0.11491563622667	0.132466933223207	0.042012056036822	0.0836718927533894
0.16001366	-0.0801329487351313	-0.702999494148845	41.595551727916	258.811245828339	0.0207485721094883	0.152683568876905	0.033883676190955	0.0865810986779729	0.0358395034421428	0.081585670025872	0.370767988056742	0.132464370860671	0.115006141984357	0.132465962504296	0.0420101262322456	0.0836715227347656
0.16004782	-0.0801567558445103	-0.703589730814879	41.6043932087528	258.812472258641	0.0207482305415834	0.152687014912635	0.033936116475244	0.0865845117898193	0.0358834142302952	0.0815890954031222	0.370876591165917	0.132459172033828	0.115255239808233	0.132461063089224	0.0420005112656739	0.0836696331817271
0.16021859	-0.0802772005880632	-0.706542632879292	41.648589721463	258.818610560014	0.0207465353190336	0.152704224637584	0.0341933673838237	0.086600918650554	0.0360988515566364	0.0816057110621353	0.371414000059312	0.132433166416977	0.11647965625029	0.1324363844319	0.0419524977501951	0.0836601983846197
0.16086129	-0.080734209018405	-0.714879306142035	41.8149392978259	258.83327237446	0.0207401963641372	0.152768933937222	0.0350918159269581	0.0866581150903895	0.0368517337022295	0.081664750913835	0.373357222381553	0.13233505049521	0.120793888931951	0.132340875325318	0.0417728890381485	0.0836247115421002
